<svg version="1.2" xmlns="http://www.w3.org/2000/svg" viewBox="0 0 240 240" width="240" height="240">
    <style>.a{fill:#fff}</style>
    <filter id="f0">
        <feFlood flood-color="#01549d" flood-opacity="1" />
        <feBlend mode="normal" in2="SourceGraphic" />
        <feComposite in2="SourceAlpha" operator="in" />
    </filter>
    <g filter="url(#f0)">
        <path class="a" d="m148.2 229.4l-96.9-0.2-48.3-84.1 48.7-83.9 97 0.3 48.2 84.1z" />
    </g>
    <filter id="f1">
        <feFlood flood-color="#fcbf31" flood-opacity="1" />
        <feBlend mode="normal" in2="SourceGraphic" />
        <feComposite in2="SourceAlpha" operator="in" />
    </filter>
    <g filter="url(#f1)">
        <path class="a" d="m155.3 63.3l43.3-25 10 17.4-43.3 25z" />
        <path class="a" d="m167.3 84.3l60.7-35 10 17.4-60.7 35z" />
        <path class="a" d="m179 105l17.3-10 10 17.3-17.3 10z" />
    </g>
    <filter id="f2">
        <feFlood flood-color="#fcbf31" flood-opacity="1" />
        <feBlend mode="normal" in2="SourceGraphic" />
        <feComposite in2="SourceAlpha" operator="in" />
    </filter>
    <g filter="url(#f2)">
        <path class="a" d="m155.3 63.3l43.3-25 10 17.4-43.3 25z" />
        <path class="a" d="m167.3 84.3l60.7-35 10 17.4-60.7 35z" />
        <path class="a" d="m179 105l17.3-10 10 17.3-17.3 10z" />
        <path class="a" d="m66 59c-5 0-9-4-9-9 0-5 4-9 9-9 5 0 9 4 9 9 0 5-4 9-9 9z" />
        <path class="a" d="m92 48c-5 0-9-4-9-9 0-5 4-9 9-9 5 0 9 4 9 9 0 5-4 9-9 9z" />
        <path class="a" d="m110 28c-5 0-9-4-9-9 0-5 4-9 9-9 5 0 9 4 9 9 0 5-4 9-9 9z" />
        <path class="a" d="m121 58c-5 0-9-4-9-9 0-5 4-9 9-9 5 0 9 4 9 9 0 5-4 9-9 9z" />
        <path class="a" d="m64.8 49.6l27.2-12.6 1.7 3.6-27.2 12.6z" />
        <path class="a" d="m89.7 39l20.6-21.7 2.9 2.7-20.6 21.8z" />
        <path class="a" d="m113 19.6l9.7 28.3-3.8 1.3-9.7-28.3z" />
        <path class="a" d="m110 28c-5 0-9-4-9-9 0-5 4-9 9-9 5 0 9 4 9 9 0 5-4 9-9 9z" />
    </g>
    <path class="a"
        d="m102.8 140.4q-6.5 0-9.8 4.2-3.2 4.2-3.2 12.7 0 8.5 3.2 12.7 3.3 4.2 9.8 4.2 6.6 0 9.9-4.2 3.3-4.2 3.3-12.7 0-8.5-3.3-12.7-3.3-4.2-9.9-4.2zm30.8-46.4v17.9q-6.1-3-11.6-4.3-5.4-1.4-10.6-1.4-11.1 0-17.3 6.2-6.2 6.1-7.2 18.3 4.2-3.2 9.2-4.8 5-1.6 10.9-1.6 14.8 0 23.8 8.7 9.1 8.7 9.1 22.7 0 15.5-10.1 24.9-10.2 9.3-27.2 9.3-18.8 0-29.2-12.7-10.2-12.7-10.2-36.1 0-23.9 12-37.5 12.1-13.7 33.1-13.7 6.6 0 12.9 1 6.3 1 12.4 3.1z" />
</svg>