<svg xmlns="http://www.w3.org/2000/svg" width="240" height="240" version="1.2">
    <style>.a{fill:#fff}</style>
    <filter id="f0">
        <feFlood flood-color="#01549d" flood-opacity="1" />
        <feBlend in2="SourceGraphic" />
        <feComposite in2="SourceAlpha" operator="in" />
    </filter>
    <g filter="url(#f0)">
        <path d="m148.2 217.4-96.9-.2L3 133.1l48.7-83.9 97 .3 48.2 84.1z" class="a" />
    </g>
    <filter id="f1">
        <feFlood flood-color="#fcbf31" flood-opacity="1" />
        <feBlend in2="SourceGraphic" />
        <feComposite in2="SourceAlpha" operator="in" />
    </filter>
    <g filter="url(#f1)">
        <path
            d="m155.3 51.3 43.3-25 10 17.4-43.3 25zM167.3 72.3l60.7-35 10 17.4-60.7 35zM179 93l17.3-10 10 17.3-17.3 10z"
            class="a" />
    </g>
    <path
        d="M102.8 128.4q-6.5 0-9.8 4.2-3.2 4.2-3.2 12.7T93 158q3.3 4.2 9.8 4.2 6.6 0 9.9-4.2 3.3-4.2 3.3-12.7t-3.3-12.7q-3.3-4.2-9.9-4.2zM133.6 82v17.9q-6.1-3-11.6-4.3-5.4-1.4-10.6-1.4-11.1 0-17.3 6.2-6.2 6.1-7.2 18.3 4.2-3.2 9.2-4.8 5-1.6 10.9-1.6 14.8 0 23.8 8.7 9.1 8.7 9.1 22.7 0 15.5-10.1 24.9-10.2 9.3-27.2 9.3-18.8 0-29.2-12.7-10.2-12.7-10.2-36.1 0-23.9 12-37.5 12.1-13.7 33.1-13.7 6.6 0 12.9 1 6.3 1 12.4 3.1z"
        class="a" />
</svg>