<?xml version="1.0" standalone="no"?>
<!DOCTYPE svg PUBLIC "-//W3C//DTD SVG 20010904//EN"
 "http://www.w3.org/TR/2001/REC-SVG-20010904/DTD/svg10.dtd">
<svg version="1.0" xmlns="http://www.w3.org/2000/svg"
 width="700.000000pt" height="700.000000pt" viewBox="0 0 700.000000 700.000000"
 preserveAspectRatio="xMidYMid meet">
<metadata>
Created by potrace 1.14, written by Peter Selinger 2001-2017
</metadata>
<g transform="translate(0.000000,700.000000) scale(0.100000,-0.100000)"
fill="#000000" stroke="none">
<path d="M3140 6701 c-75 -23 -141 -80 -172 -150 -35 -77 -24 -192 25 -256 14
-18 9 -25 -75 -116 l-90 -97 -41 19 c-47 21 -131 25 -190 8 -24 -6 -60 -31
-92 -62 -43 -42 -57 -64 -70 -111 -10 -33 -15 -75 -12 -96 l5 -38 -130 -61
c-71 -34 -134 -61 -139 -61 -5 0 -24 16 -42 37 -97 111 -287 110 -386 -2 -47
-54 -64 -100 -65 -176 0 -55 5 -74 30 -120 60 -105 167 -155 283 -131 31 7 74
24 96 40 53 37 101 118 109 185 l7 54 142 65 142 65 40 -34 c133 -113 343 -61
411 102 19 46 18 145 -2 195 l-16 39 94 101 c81 88 96 100 118 95 14 -3 51 -8
82 -11 l56 -7 66 -188 65 -189 -43 -43 c-99 -100 -101 -267 -4 -366 55 -56
103 -76 188 -76 83 0 121 15 178 69 57 53 77 101 77 186 0 58 -5 84 -22 116
-45 85 -115 132 -212 143 l-54 6 -67 197 -67 198 25 22 c73 68 102 193 67 285
-48 124 -194 200 -315 164z"/>
<path d="M5160 5519 c-344 -199 -626 -362 -628 -364 -5 -4 283 -504 291 -505
8 0 1236 707 1251 721 8 7 -271 509 -284 509 -3 0 -286 -163 -630 -361z"/>
<path d="M5770 5055 c-481 -277 -879 -506 -884 -508 -5 -2 57 -118 138 -259
l147 -256 182 105 c100 58 498 288 885 510 387 223 702 409 700 413 -7 21
-284 499 -288 500 -3 0 -399 -227 -880 -505z"/>
<path d="M1496 5197 c-8 -12 -328 -562 -711 -1222 -580 -999 -695 -1204 -688
-1222 4 -12 321 -567 703 -1232 l695 -1211 1416 0 1415 0 705 1213 c387 666
704 1221 704 1232 -1 16 -1373 2426 -1394 2446 -3 4 -642 9 -1418 12 l-1413 6
-14 -22z m1834 -831 c157 -7 313 -35 493 -87 l67 -20 0 -260 0 -259 -47 24
c-100 49 -282 106 -413 127 -36 6 -121 10 -190 10 -356 -1 -581 -167 -670
-493 -19 -72 -42 -209 -36 -216 2 -2 31 15 65 37 88 56 190 96 311 121 142 30
357 24 500 -13 227 -59 408 -185 526 -368 199 -307 187 -777 -26 -1089 -130
-189 -356 -332 -611 -385 -275 -58 -595 -29 -814 74 -361 169 -571 522 -626
1049 -15 150 -7 516 15 637 55 300 153 525 311 708 169 196 399 329 663 382
82 17 280 33 337 28 17 -1 82 -4 145 -7z"/>
<path d="M2894 2897 c-191 -49 -273 -196 -274 -488 0 -265 71 -407 237 -469
83 -31 233 -26 314 12 68 31 120 82 154 148 92 181 76 534 -29 673 -37 49
-112 102 -164 117 -61 17 -183 21 -238 7z"/>
<path d="M5474 4085 c-137 -80 -248 -150 -246 -155 1 -6 66 -121 143 -255
l141 -244 47 27 c26 15 140 81 253 146 l207 120 -18 30 c-10 17 -71 123 -136
236 -65 113 -123 213 -130 222 -10 15 -37 2 -261 -127z"/>
</g>
</svg>
