<?xml version="1.0" standalone="no"?>
<!DOCTYPE svg PUBLIC "-//W3C//DTD SVG 20010904//EN"
 "http://www.w3.org/TR/2001/REC-SVG-20010904/DTD/svg10.dtd">
<svg version="1.0" xmlns="http://www.w3.org/2000/svg"
 width="700.000000pt" height="700.000000pt" viewBox="0 0 700.000000 700.000000"
 preserveAspectRatio="xMidYMid meet">
<metadata>
Created by potrace 1.14, written by Peter Selinger 2001-2017
</metadata>
<g transform="translate(0.000000,700.000000) scale(0.100000,-0.100000)"
fill="#000000" stroke="none">
<path d="M5615 6126 c-88 -51 -365 -211 -615 -355 -250 -145 -457 -265 -459
-267 -2 -2 60 -116 139 -254 l143 -250 31 19 c32 20 1178 681 1208 697 15 8
-1 41 -125 257 -78 136 -146 247 -152 246 -5 0 -82 -42 -170 -93z"/>
<path d="M6025 5547 c-336 -193 -728 -419 -872 -502 -144 -82 -262 -153 -263
-156 0 -13 282 -499 288 -496 258 142 1752 1013 1750 1021 -8 28 -274 485
-283 485 -5 0 -285 -158 -620 -352z"/>
<path d="M1497 5549 c-30 -48 -1389 -2392 -1399 -2414 -8 -19 80 -178 687
-1236 384 -668 702 -1220 707 -1226 8 -10 305 -13 1422 -13 l1411 0 690 1186
c380 653 698 1203 709 1224 l19 37 -703 1227 -703 1226 -932 0 c-512 0 -1148
3 -1412 7 l-480 6 -16 -24z m1806 -829 c199 -13 383 -46 540 -96 l47 -16 0
-258 0 -258 -91 39 c-205 89 -379 123 -589 116 -121 -3 -158 -9 -226 -31 -190
-62 -330 -205 -399 -409 -23 -69 -58 -257 -50 -265 2 -2 24 10 49 28 69 47
181 97 271 121 102 27 315 36 439 20 513 -69 833 -486 778 -1014 -40 -384
-243 -660 -585 -797 -230 -92 -567 -113 -813 -50 -359 92 -618 347 -737 726
-69 220 -91 407 -84 721 5 259 23 380 83 566 130 400 414 690 787 801 128 38
222 53 412 64 11 1 87 -3 168 -8z"/>
<path d="M2910 3250 c-197 -42 -290 -199 -290 -492 1 -247 66 -390 209 -457
50 -23 68 -26 171 -26 103 0 121 3 170 26 150 71 211 206 211 465 0 316 -115
474 -354 489 -40 2 -92 0 -117 -5z"/>
<path d="M5478 4432 c-131 -76 -240 -141 -244 -144 -4 -5 254 -465 276 -491 4
-5 476 258 498 278 4 4 -278 490 -286 492 -4 2 -114 -60 -244 -135z"/>
</g>
</svg>
